<?xml version="1.0" encoding="UTF-8" standalone="no"?>
<svg
   xmlns:dc="http://purl.org/dc/elements/1.1/"
   xmlns:cc="http://creativecommons.org/ns#"
   xmlns:rdf="http://www.w3.org/1999/02/22-rdf-syntax-ns#"
   xmlns:svg="http://www.w3.org/2000/svg"
   xmlns="http://www.w3.org/2000/svg"
   xmlns:sodipodi="http://sodipodi.sourceforge.net/DTD/sodipodi-0.dtd"
   xmlns:inkscape="http://www.inkscape.org/namespaces/inkscape"
   version="1.1"
   id="Capa_1"
   x="0px"
   y="0px"
   viewBox="0 0 502.664 502.664"
   style="enable-background:new 0 0 502.664 502.664;"
   xml:space="preserve"
   sodipodi:docname="fav-green.svg"
   inkscape:version="1.0.1 (c497b03c, 2020-09-10)"><metadata
   id="metadata214"><rdf:RDF><cc:Work
       rdf:about=""><dc:format>image/svg+xml</dc:format><dc:type
         rdf:resource="http://purl.org/dc/dcmitype/StillImage" /><dc:title></dc:title></cc:Work></rdf:RDF></metadata><defs
   id="defs212" /><sodipodi:namedview
   pagecolor="#ffffff"
   bordercolor="#666666"
   borderopacity="1"
   objecttolerance="10"
   gridtolerance="10"
   guidetolerance="10"
   inkscape:pageopacity="0"
   inkscape:pageshadow="2"
   inkscape:window-width="1097"
   inkscape:window-height="904"
   id="namedview210"
   showgrid="false"
   inkscape:zoom="1.4622093"
   inkscape:cx="137.46322"
   inkscape:cy="353.91649"
   inkscape:window-x="0"
   inkscape:window-y="23"
   inkscape:window-maximized="0"
   inkscape:current-layer="Capa_1" />
<g
   id="g177">
	<g
   id="g145">
		<path
   style="fill:#010002;"
   d="M153.821,358.226L0,274.337v-46.463l153.821-83.414v54.574L46.636,250.523l107.185,53.431    C153.821,303.954,153.821,358.226,153.821,358.226z"
   id="path139" />
		<path
   style="fill:#010002;"
   d="M180.094,387.584L282.103,115.08h32.227L212.084,387.584H180.094z"
   id="path141" />
		<path
   style="fill:#010002;"
   d="M348.843,358.226v-54.272l107.164-52.999l-107.164-52.59v-53.927l153.821,83.522v46.183    L348.843,358.226z"
   id="path143" />
	</g>
	<g
   id="g147">
	</g>
	<g
   id="g149">
	</g>
	<g
   id="g151">
	</g>
	<g
   id="g153">
	</g>
	<g
   id="g155">
	</g>
	<g
   id="g157">
	</g>
	<g
   id="g159">
	</g>
	<g
   id="g161">
	</g>
	<g
   id="g163">
	</g>
	<g
   id="g165">
	</g>
	<g
   id="g167">
	</g>
	<g
   id="g169">
	</g>
	<g
   id="g171">
	</g>
	<g
   id="g173">
	</g>
	<g
   id="g175">
	</g>
</g>
<g
   id="g179">
</g>
<g
   id="g181">
</g>
<g
   id="g183">
</g>
<g
   id="g185">
</g>
<g
   id="g187">
</g>
<g
   id="g189">
</g>
<g
   id="g191">
</g>
<g
   id="g193">
</g>
<g
   id="g195">
</g>
<g
   id="g197">
</g>
<g
   id="g199">
</g>
<g
   id="g201">
</g>
<g
   id="g203">
</g>
<g
   id="g205">
</g>
<g
   id="g207">
</g>
<path
   style="fill:none;stroke-width:0.683897"
   d="m 349.12921,330.80589 v -26.53007 l 53.51491,-26.48433 c 29.4332,-14.56638 53.4603,-26.67813 53.39356,-26.91499 -0.0668,-0.23686 -24.07151,-12.18238 -53.34393,-26.54559 l -53.22259,-26.11492 -0.17906,-26.50367 c -0.10125,-14.9863 0.0815,-26.40343 0.4205,-26.27301 0.32975,0.12687 34.80583,18.807 76.61351,41.5114 l 76.01395,41.28073 -0.17998,22.91573 -0.17998,22.91573 -76.18376,41.63654 c -41.90107,22.90009 -76.29252,41.63653 -76.42544,41.63653 -0.13293,0 -0.24169,-11.93853 -0.24169,-26.53008 z"
   id="path220" /><path
   style="fill:none;stroke-width:0.683897"
   d="m 349.12921,330.80589 v -26.53007 l 53.51491,-26.48433 c 29.4332,-14.56638 53.4603,-26.67813 53.39356,-26.91499 -0.0668,-0.23686 -24.07151,-12.18238 -53.34393,-26.54559 l -53.22259,-26.11492 -0.17906,-26.50367 c -0.10125,-14.9863 0.0815,-26.40343 0.4205,-26.27301 0.32975,0.12687 34.80583,18.807 76.61351,41.5114 l 76.01395,41.28073 -0.17998,22.91573 -0.17998,22.91573 -76.18376,41.63654 c -41.90107,22.90009 -76.29252,41.63653 -76.42544,41.63653 -0.13293,0 -0.24169,-11.93853 -0.24169,-26.53008 z"
   id="path222" /><path
   style="fill:none;stroke-width:0.683897"
   d="m 349.12921,330.80589 v -26.53007 l 53.51491,-26.48433 c 29.4332,-14.56638 53.4603,-26.67813 53.39356,-26.91499 -0.0668,-0.23686 -24.07151,-12.18238 -53.34393,-26.54559 l -53.22259,-26.11492 -0.17906,-26.50367 c -0.10125,-14.9863 0.0815,-26.40343 0.4205,-26.27301 0.32975,0.12687 34.80583,18.807 76.61351,41.5114 l 76.01395,41.28073 -0.17998,22.91573 -0.17998,22.91573 -76.18376,41.63654 c -41.90107,22.90009 -76.29252,41.63653 -76.42544,41.63653 -0.13293,0 -0.24169,-11.93853 -0.24169,-26.53008 z"
   id="path224" /><path
   style="fill:none;stroke-width:0.683897"
   d="m 181.00898,386.50813 c 0.12299,-0.51989 22.99738,-61.7676 50.83197,-136.10603 l 50.60835,-135.16079 15.60473,-0.002 c 15.56168,-0.002 15.60347,0.002 15.14706,1.43964 -0.25172,0.79309 -23.15216,61.9591 -50.88988,135.92444 l -50.43221,134.48245 -15.54682,0.18395 c -12.94908,0.15322 -15.50945,0.026 -15.3232,-0.76129 z"
   id="path226" /><path
   style="fill:#a6dc46;stroke-width:0.683897;fill-opacity:1"
   d="M 76.596419,315.70658 0.6838966,274.21329 V 251.10041 227.98752 L 76.893141,186.65778 c 41.915079,-22.73137 76.310109,-41.32975 76.433379,-41.32975 0.12328,0 0.14363,12.04991 0.0452,26.77759 l -0.17888,26.77759 -49.58251,23.7967 c -27.270372,13.08818 -51.42902,24.69545 -53.685878,25.79394 l -4.10338,1.99725 53.856857,26.92942 53.856861,26.9294 v 26.50303 c 0,14.57666 -0.23082,26.4724 -0.51293,26.43497 -0.2821,-0.0374 -34.67355,-18.74003 -76.425441,-41.56134 z"
   id="path228" /><path
   style="fill:#a6dc46;fill-opacity:1;stroke-width:0.683897"
   d="m 141.5666,350.65753 c -5.83022,-3.17851 -39.91392,-21.78018 -75.741552,-41.33705 L 0.6838966,273.76254 0.68905202,251.09201 0.6942075,228.42146 22.060821,216.84614 C 78.847684,186.08196 148.98201,148.1485 150.97017,147.12312 l 2.22267,-1.14632 v 26.24187 26.24188 l -53.492472,25.68452 c -29.420856,14.12647 -53.579767,25.9464 -53.686463,26.26648 -0.106696,0.32009 23.964919,12.66027 53.492469,27.42261 l 53.686466,26.84063 v 25.60633 c 0,14.08348 -0.23082,25.72991 -0.51292,25.88093 -0.28211,0.15103 -5.28311,-2.32601 -11.11332,-5.50452 z"
   id="path1053" /><path
   style="fill:#a6dc46;fill-opacity:1;stroke-width:0.683897"
   d="m 181.91445,383.83697 c 0.74061,-1.97476 23.63971,-63.14076 50.88691,-135.92445 l 49.54035,-132.33399 15.7784,-0.18357 15.7784,-0.18357 -1.27073,3.2611 c -0.69891,1.79361 -23.68141,63.04222 -51.07223,136.10802 L 211.75406,387.42742 H 196.16098 180.5679 Z"
   id="path1055" /><path
   style="fill:#a6dc46;fill-opacity:1;stroke-width:0.683897"
   d="m 349.63413,330.70537 0.17898,-26.7702 52.90729,-26.14724 c 29.09901,-14.38098 52.91045,-26.44696 52.91431,-26.81327 0.004,-0.36631 -23.87208,-12.36121 -53.05764,-26.65533 l -53.06467,-25.98932 -0.0206,-26.54161 -0.0206,-26.54161 6.71978,3.63108 c 3.69587,1.99709 38.16391,20.71139 76.59564,41.58733 l 69.87587,37.95626 6.8e-4,22.63019 6.9e-4,22.63019 -73.00597,39.88701 c -40.15309,21.93786 -74.62508,40.79145 -76.60423,41.89687 l -3.59846,2.00985 z"
   id="path1057" /></svg>
